<?xml version="1.0" standalone="no"?>
<!DOCTYPE svg PUBLIC "-//W3C//DTD SVG 20010904//EN"
 "http://www.w3.org/TR/2001/REC-SVG-20010904/DTD/svg10.dtd">
<svg version="1.0" xmlns="http://www.w3.org/2000/svg"
 width="1890.000000pt" height="1417.000000pt" viewBox="0 0 1890.000000 1417.000000"
 preserveAspectRatio="xMidYMid meet">

<g transform="translate(0.000000,1417.000000) scale(0.100000,-0.100000)"
fill="#000000" stroke="none">
<path d="M4360 7001 l0 -731 125 0 125 0 0 219 0 219 243 5 c253 5 311 14 402
59 161 81 248 219 261 416 18 262 -109 444 -361 515 -62 18 -109 21 -432 25
l-363 4 0 -731z m748 482 c124 -50 176 -129 175 -266 -1 -103 -35 -177 -106
-224 -76 -51 -104 -56 -344 -60 l-223 -5 0 292 0 292 223 -4 c197 -4 228 -6
275 -25z"/>
<path d="M10040 7620 l0 -110 230 0 230 0 0 -620 0 -620 120 0 120 0 2 618 3
617 233 3 232 2 0 110 0 110 -585 0 -585 0 0 -110z"/>
</g>
</svg>
